# xmcd
#
# Track frame offsets:
#	150
#	21302
#	42175
#	54015
#	72707
#	89340
#	104604
#	118900
#	137900
#	153820
#	176250
#	191240
#	203395
#	213265
#	234992
#	248682
#	272680
#	291527
#	305672
#
# Disc length: 4374 seconds
#
# Revision: 1
# Processed by: cddbd v1.5.1PL2 Copyright (c) Steve Scherf et al.
# Submitted via: audiograbber 1.83.01
#
DISCID=15111413
DTITLE=Brad Hines - Live at the White Elephant Saloon
DYEAR=2002
DGENRE=Country
TTITLE0=Forever In His Debt
TTITLE1=The Way It All Went Down
TTITLE2=Your Smile Makes Me Wonder
TTITLE3=Rednecks Love Their Mothers
TTITLE4=Please Don't Ask Me Why
TTITLE5=Charlie Johnson
TTITLE6=Wish I Was A Kid Again
TTITLE7=I Don't Need To Tell You
TTITLE8=Dance With The Eagle
TTITLE9=The Fall
TTITLE10=Standard Sunday Morning
TTITLE11=Roller Coaster On A Stormy Night
TTITLE12=Yo-Yo
TTITLE13=Who We Are
TTITLE14=Flash
TTITLE15=Senorita Del Diablo (With Long Black Hair)
TTITLE16=Masquerade
TTITLE17=Edge Of Movin' On
TTITLE18=Hello, It's Me
EXTD=Recorded live December 7, 2002 at the White Elephant Saloon, Fort Worth TX
EXTD=www.BradHinesMusic.com
EXTT0=
EXTT1=
EXTT2=
EXTT3=
EXTT4=
EXTT5=
EXTT6=
EXTT7=
EXTT8=
EXTT9=
EXTT10=
EXTT11=
EXTT12=
EXTT13=
EXTT14=
EXTT15=
EXTT16=
EXTT17=
EXTT18=
PLAYORDER=
